<?xml version="1.0" encoding="utf-8"?>
<!-- Generator: Adobe Illustrator 27.0.1, SVG Export Plug-In . SVG Version: 6.00 Build 0)  -->
<svg version="1.1" id="Layer_1" xmlns="http://www.w3.org/2000/svg" xmlns:xlink="http://www.w3.org/1999/xlink" x="0px" y="0px"
	 viewBox="0 0 300 3000" style="enable-background:new 0 0 300 3000;" xml:space="preserve">
<style type="text/css">
	.st0{fill:#484848;}
</style>
<g>
	<path class="st0" d="M35.4,101.4h229.1c9.1,0,16.4,7.4,16.4,16.4v26.5c0,9.1-7.4,16.4-16.4,16.4H35.4c-9.1,0-16.4-7.4-16.4-16.4
		v-26.5C19,108.7,26.4,101.4,35.4,101.4z"/>
	<path class="st0" d="M19,0h262v43c0,9.1-7.4,16.4-16.4,16.4H35.4C26.4,59.4,19,52.1,19,43V0C19,0,19,0,19,0z"/>
	<path class="st0" d="M35.4,202.8h229.1c9.1,0,16.4,7.4,16.4,16.4v26.6c0,9.1-7.4,16.4-16.4,16.4H35.4c-9.1,0-16.4-7.4-16.4-16.4
		v-26.6C19,210.1,26.4,202.8,35.4,202.8z"/>
	<path class="st0" d="M35.4,304.1h229.1c9.1,0,16.4,7.4,16.4,16.4v26.5c0,9.1-7.4,16.4-16.4,16.4H35.4c-9.1,0-16.4-7.4-16.4-16.4
		v-26.5C19,311.5,26.4,304.1,35.4,304.1z"/>
	<path class="st0" d="M35.4,405.5h229.1c9.1,0,16.4,7.4,16.4,16.4v26.5c0,9.1-7.4,16.4-16.4,16.4H35.4c-9.1,0-16.4-7.4-16.4-16.4
		V422C19,412.9,26.4,405.5,35.4,405.5z"/>
	<path class="st0" d="M35.4,506.9h229.1c9.1,0,16.4,7.4,16.4,16.4v26.6c0,9.1-7.4,16.4-16.4,16.4H35.4c-9.1,0-16.4-7.4-16.4-16.4
		v-26.6C19,514.3,26.4,506.9,35.4,506.9z"/>
	<path class="st0" d="M35.4,608.3h229.1c9.1,0,16.4,7.4,16.4,16.4v26.5c0,9.1-7.4,16.4-16.4,16.4H35.4c-9.1,0-16.4-7.4-16.4-16.4
		v-26.5C19,615.6,26.4,608.3,35.4,608.3z"/>
	<path class="st0" d="M35.4,709.7h229.1c9.1,0,16.4,7.4,16.4,16.4v26.5c0,9.1-7.4,16.4-16.4,16.4H35.4c-9.1,0-16.4-7.4-16.4-16.4
		v-26.5C19,717,26.4,709.7,35.4,709.7z"/>
	<path class="st0" d="M35.4,811h229.1c9.1,0,16.4,7.4,16.4,16.4V854c0,9.1-7.4,16.4-16.4,16.4H35.4c-9.1,0-16.4-7.4-16.4-16.4v-26.5
		C19,818.4,26.4,811,35.4,811z"/>
	<path class="st0" d="M35.4,912.4h229.1c9.1,0,16.4,7.4,16.4,16.4v26.5c0,9.1-7.4,16.4-16.4,16.4H35.4c-9.1,0-16.4-7.4-16.4-16.4
		v-26.5C19,919.8,26.4,912.4,35.4,912.4z"/>
	<path class="st0" d="M35.4,1013.8h229.1c9.1,0,16.4,7.4,16.4,16.4v26.6c0,9.1-7.4,16.4-16.4,16.4H35.4c-9.1,0-16.4-7.4-16.4-16.4
		v-26.6C19,1021.2,26.4,1013.8,35.4,1013.8z"/>
	<path class="st0" d="M35.4,1115.2h229.1c9.1,0,16.4,7.4,16.4,16.4v26.6c0,9.1-7.4,16.4-16.4,16.4H35.4c-9.1,0-16.4-7.4-16.4-16.4
		v-26.6C19,1122.6,26.4,1115.2,35.4,1115.2z"/>
	<path class="st0" d="M35.4,1216.6h229.1c9.1,0,16.4,7.4,16.4,16.4v26.6c0,9.1-7.4,16.4-16.4,16.4H35.4c-9.1,0-16.4-7.4-16.4-16.4
		V1233C19,1223.9,26.4,1216.6,35.4,1216.6z"/>
</g>
<g>
	<path class="st0" d="M35.4,1418.8h229.1c9.1,0,16.4,7.4,16.4,16.4v26.6c0,9.1-7.4,16.4-16.4,16.4H35.4c-9.1,0-16.4-7.4-16.4-16.4
		v-26.6C19,1426.2,26.4,1418.8,35.4,1418.8z"/>
	<path class="st0" d="M35.4,1317.4h229.1c9.1,0,16.4,7.4,16.4,16.4v26.6c0,9.1-7.4,16.4-16.4,16.4H35.4c-9.1,0-16.4-7.4-16.4-16.4
		v-26.6C19,1324.8,26.4,1317.4,35.4,1317.4z"/>
	<path class="st0" d="M35.4,1520.2h229.1c9.1,0,16.4,7.4,16.4,16.4v26.6c0,9.1-7.4,16.4-16.4,16.4H35.4c-9.1,0-16.4-7.4-16.4-16.4
		v-26.6C19,1527.6,26.4,1520.2,35.4,1520.2z"/>
	<path class="st0" d="M35.4,1621.6h229.1c9.1,0,16.4,7.4,16.4,16.4v26.6c0,9.1-7.4,16.4-16.4,16.4H35.4c-9.1,0-16.4-7.4-16.4-16.4
		V1638C19,1629,26.4,1621.6,35.4,1621.6z"/>
	<path class="st0" d="M35.4,1723h229.1c9.1,0,16.4,7.4,16.4,16.4v26.6c0,9.1-7.4,16.4-16.4,16.4H35.4c-9.1,0-16.4-7.4-16.4-16.4
		v-26.6C19,1730.3,26.4,1723,35.4,1723z"/>
	<path class="st0" d="M35.4,1824.3h229.1c9.1,0,16.4,7.4,16.4,16.4v26.6c0,9.1-7.4,16.4-16.4,16.4H35.4c-9.1,0-16.4-7.4-16.4-16.4
		v-26.6C19,1831.7,26.4,1824.3,35.4,1824.3z"/>
</g>
<g>
	<path class="st0" d="M35.4,2026.6h229.1c9.1,0,16.4,7.4,16.4,16.4v26.6c0,9.1-7.4,16.4-16.4,16.4H35.4c-9.1,0-16.4-7.4-16.4-16.4
		V2043C19,2034,26.4,2026.6,35.4,2026.6z"/>
	<path class="st0" d="M35.4,1925.2h229.1c9.1,0,16.4,7.4,16.4,16.4v26.6c0,9.1-7.4,16.4-16.4,16.4H35.4c-9.1,0-16.4-7.4-16.4-16.4
		v-26.6C19,1932.6,26.4,1925.2,35.4,1925.2z"/>
	<path class="st0" d="M35.4,2128h229.1c9.1,0,16.4,7.4,16.4,16.4v26.6c0,9.1-7.4,16.4-16.4,16.4H35.4c-9.1,0-16.4-7.4-16.4-16.4
		v-26.6C19,2135.4,26.4,2128,35.4,2128z"/>
	<path class="st0" d="M35.4,2229.4h229.1c9.1,0,16.4,7.4,16.4,16.4v26.6c0,9.1-7.4,16.4-16.4,16.4H35.4c-9.1,0-16.4-7.4-16.4-16.4
		v-26.6C19,2236.7,26.4,2229.4,35.4,2229.4z"/>
	<path class="st0" d="M35.4,2330.8h229.1c9.1,0,16.4,7.4,16.4,16.4v26.6c0,9.1-7.4,16.4-16.4,16.4H35.4c-9.1,0-16.4-7.4-16.4-16.4
		v-26.6C19,2338.1,26.4,2330.8,35.4,2330.8z"/>
	<path class="st0" d="M35.4,2432.1h229.1c9.1,0,16.4,7.4,16.4,16.4v26.6c0,9.1-7.4,16.4-16.4,16.4H35.4c-9.1,0-16.4-7.4-16.4-16.4
		v-26.6C19,2439.5,26.4,2432.1,35.4,2432.1z"/>
</g>
<g>
	<path class="st0" d="M35.4,2634.4h229.1c9.1,0,16.4,7.4,16.4,16.4v26.6c0,9.1-7.4,16.4-16.4,16.4H35.4c-9.1,0-16.4-7.4-16.4-16.4
		v-26.6C19,2641.8,26.4,2634.4,35.4,2634.4z"/>
	<path class="st0" d="M35.4,2533h229.1c9.1,0,16.4,7.4,16.4,16.4v26.6c0,9.1-7.4,16.4-16.4,16.4H35.4c-9.1,0-16.4-7.4-16.4-16.4
		v-26.6C19,2540.4,26.4,2533,35.4,2533z"/>
	<path class="st0" d="M35.4,2735.8h229.1c9.1,0,16.4,7.4,16.4,16.4v26.6c0,9.1-7.4,16.4-16.4,16.4H35.4c-9.1,0-16.4-7.4-16.4-16.4
		v-26.6C19,2743.1,26.4,2735.8,35.4,2735.8z"/>
	<path class="st0" d="M35.4,2837.1h229.1c9.1,0,16.4,7.4,16.4,16.4v26.6c0,9.1-7.4,16.4-16.4,16.4H35.4c-9.1,0-16.4-7.4-16.4-16.4
		v-26.6C19,2844.5,26.4,2837.1,35.4,2837.1z"/>
	<path class="st0" d="M35.4,2938.5h229.1c9.1,0,16.4,7.4,16.4,16.4v26.6c0,9.1-7.4,16.4-16.4,16.4H35.4c-9.1,0-16.4-7.4-16.4-16.4
		V2955C19,2945.9,26.4,2938.5,35.4,2938.5z"/>
	<path class="st0" d="M35.4,3039.9h229.1c9.1,0,16.4,7.4,16.4,16.4v26.6c0,9.1-7.4,16.4-16.4,16.4H35.4c-9.1,0-16.4-7.4-16.4-16.4
		v-26.6C19,3047.3,26.4,3039.9,35.4,3039.9z"/>
</g>
</svg>
